<svg id="Layer_1" enable-background="new 0 0 65 65" viewBox="0 0 65 65" xmlns="http://www.w3.org/2000/svg"><g><g><circle cx="32.5" cy="32.5" fill="#eaebf0" r="32"/></g><g><path d="m54.1 28.2c-1.7-8.7-8.6-15.6-17.3-17.3-1.4-.3-2.8-.4-4.3-.4s-2.9.1-4.3.4c-8.7 1.7-15.6 8.6-17.3 17.3-.3 1.4-.4 2.8-.4 4.3s.1 2.9.4 4.3c1.7 8.7 8.6 15.6 17.3 17.3 1.4.3 2.8.4 4.3.4s2.9-.1 4.3-.4c8.7-1.7 15.6-8.6 17.3-17.3.3-1.4.4-2.8.4-4.3s-.1-2.9-.4-4.3zm-17.3 14.5c-1.3.6-2.8.9-4.3.9s-3-.3-4.3-.9c-2.6-1.1-4.7-3.2-5.9-5.9-.6-1.3-.9-2.8-.9-4.3s.3-3 .9-4.3c1.1-2.6 3.2-4.7 5.9-5.9 1.3-.6 2.8-.9 4.3-.9s3 .3 4.3.9c2.6 1.1 4.7 3.2 5.9 5.9.6 1.3.9 2.8.9 4.3s-.3 3-.9 4.3c-1.2 2.6-3.3 4.7-5.9 5.9z" fill="#f5fdff" stroke="#47769d" stroke-miterlimit="10" stroke-width="1.5"/></g><g><path d="m36.8 10.9v11.4c-1.3-.6-2.8-.9-4.3-.9s-3 .3-4.3.9v-11.4c1.4-.3 2.8-.4 4.3-.4s2.9.1 4.3.4z" fill="#ff6877"/><path d="m37.6 23.5-1-.4c-2.5-1.1-5.5-1.1-8 0l-1 .4v-13.2l.6-.1c2.9-.6 6-.6 8.9 0l.6.1v13.2zm-8.7-12v9.7c2.3-.7 4.8-.7 7.1 0v-9.7c-2.3-.3-4.7-.3-7.1 0z" fill="#47769d"/></g><g><path d="m36.8 42.7v11.4c-1.4.3-2.8.4-4.3.4s-2.9-.1-4.3-.4v-11.4c1.3.6 2.8.9 4.3.9 1.5-.1 3-.4 4.3-.9z" fill="#ff6877"/><path d="m32.5 55.3c-1.5 0-3-.1-4.4-.4l-.6-.1v-13.3l1 .4c2.5 1.1 5.5 1.1 8 0l1-.4v13.2l-.6.1c-1.4.3-2.9.5-4.4.5zm-3.6-1.8c2.3.4 4.8.4 7.1 0v-9.7c-2.3.7-4.8.7-7.1 0z" fill="#47769d"/></g><g><path d="m21.5 32.5c0 1.5.3 3 .9 4.3h-11.5c-.3-1.4-.4-2.8-.4-4.3s.1-2.9.4-4.3h11.4c-.5 1.3-.8 2.8-.8 4.3z" fill="#ff6877"/><path d="m23.5 37.6h-13.2l-.1-.6c-.3-1.5-.4-3-.4-4.5s.1-3 .4-4.4l.1-.6h13.2l-.4 1c-.5 1.3-.8 2.6-.8 4s.3 2.7.8 4zm-12-1.5h9.7c-.4-1.1-.5-2.3-.5-3.6 0-1.2.2-2.4.5-3.5h-9.7c-.2 1.2-.3 2.4-.3 3.5 0 1.2.1 2.4.3 3.6z" fill="#47769d"/></g><g><path d="m54.5 32.5c0 1.5-.1 2.9-.4 4.3h-11.4c.6-1.3.9-2.8.9-4.3s-.3-3-.9-4.3h11.4c.3 1.4.4 2.8.4 4.3z" fill="#ff6877"/><path d="m54.7 37.6h-13.2l.4-1c.5-1.3.8-2.6.8-4s-.3-2.7-.8-4l-.4-1h13.2l.1.6c.3 1.4.4 2.9.4 4.4s-.1 3-.4 4.5zm-11-1.5h9.7c.2-1.2.3-2.4.3-3.6s-.1-2.4-.3-3.5h-9.7c.4 1.1.5 2.3.5 3.5.1 1.2-.1 2.4-.5 3.6z" fill="#47769d"/></g></g></svg>