<svg id="Layer_1" enable-background="new 0 0 24 24" viewBox="0 0 24 24" xmlns="http://www.w3.org/2000/svg" xmlns:xlink="http://www.w3.org/1999/xlink"><linearGradient id="SVGID_1_" gradientUnits="userSpaceOnUse" x1="11.924" x2="22.338" y1="12.076" y2="22.49"><stop offset="0" stop-color="#010101" stop-opacity=".1"/><stop offset="1" stop-color="#010101" stop-opacity="0"/></linearGradient><linearGradient id="SVGID_2_" gradientUnits="userSpaceOnUse" x1="-.653" x2="24.653" y1="6.1" y2="17.9"><stop offset="0" stop-color="#fff" stop-opacity=".2"/><stop offset="1" stop-color="#fff" stop-opacity="0"/></linearGradient><g><path d="m21 23h-18c-1.1045696 0-2-.8954296-2-2v-18c0-1.1045696.8954304-2 2-2h18c1.1045704 0 2 .8954304 2 2v18c0 1.1045704-.8954296 2-2 2z" fill="#21b3e8"/><path d="m21 1h-18c-1.1045532 0-2 .8953857-2 2v.25c0-1.1046143.8954468-2 2-2h18c1.1045532 0 2 .8953857 2 2v-.25c0-1.1046143-.8954468-2-2-2z" fill="#fff" opacity=".2"/><path d="m21 22.75h-18c-1.1045532 0-2-.8954468-2-2v.25c0 1.1045532.8954468 2 2 2h18c1.1045532 0 2-.8954468 2-2v-.25c0 1.1045532-.8954468 2-2 2z" fill="#010101" opacity=".1"/><path d="m12 3c-4.9705811 0-9 4.0294189-9 9 0 4.97052 4.0294189 9 9 9s9-4.02948 9-9c0-4.9705811-4.0294189-9-9-9zm2.9992676 11.9992676.5007324-1.9992676h-7l.4992065 2.0007935-3.9992065-3.0007935 4.0007324-2.9992676-.5007324 1.9992676h7l-.5007935-1.9992065 4.0007935 2.9992065z" fill="#fff"/><path d="m12 3.25c3.9824829 0 7.3519459 2.5230303 8.5974293 6.0802813-1.1274414-3.6834717-4.5446949-6.3302813-8.5974293-6.3302813s-7.4645915 2.6294732-8.5920329 6.3129454c1.2454834-3.5572515 4.60955-6.0629454 8.5920329-6.0629454z" fill="#fff" opacity=".2"/><path d="m12 20.75c-3.6246815 0-6.7415476-2.0900383-8.2113953-5.1476154-.145092-.3018208-.2741356-.6130695-.3860345-.9326658.140655.4595346.3169487.9029341.5256686 1.3270731 1.4643083 2.9756126 4.5246287 5.0032081 8.0717612 5.0032081 3.6271524 0 6.7409592-2.1062222 8.1631813-5.1892223.0767555-.1663847.1485844-.3356133.2152996-.5075092.078331-.2018232.1496143-.4073238.2135525-.6162138-1.2454834 3.5572519-4.6095505 6.0629453-8.5920334 6.0629453z" fill="#010101" opacity=".1"/><path id="XMLID_1560_" d="m19 12-4.0007925-2.9992075.5007925 1.9992075h-7l.5007257-1.9992743-4.0007257 2.9992743 3.9991913 3.0008087-.4991913-2.0008087h7l-.5007257 1.9992743z" fill="#010101" opacity=".1"/><path d="m19.5942993 7.1558838-.0115967.0092773c.8929444 1.397461 1.4172974 3.0534058 1.4172974 4.8348389 0 4.97052-4.0294189 9-9 9-2.4849243 0-4.7345581-1.0070801-6.3631592-2.6353149l-.0075073.0059814 4.6293335 4.6293335h10.741333c1.1045532 0 2-.8954468 2-2v-10.4384155z" fill="url(#SVGID_1_)"/><path d="m21 23h-18c-1.1045696 0-2-.8954296-2-2v-18c0-1.1045696.8954304-2 2-2h18c1.1045704 0 2 .8954304 2 2v18c0 1.1045704-.8954296 2-2 2z" fill="url(#SVGID_2_)"/></g><g/><g/><g/><g/><g/><g/><g/><g/><g/><g/><g/><g/><g/><g/><g/></svg>