<svg id="Icons" height="512" viewBox="0 0 60 60" width="512" xmlns="http://www.w3.org/2000/svg"><path d="m32 15h2l4.15 2.8a1.192 1.192 0 0 0 1.85-.99v-1.81l5-.01a2.006 2.006 0 0 0 2-2v-9.99a2.006 2.006 0 0 0 -2-2h-16a2.006 2.006 0 0 0 -2 2v2z" fill="#e83a47"/><path d="m56.33 50.88c-.58-1.01-1.33-1.91-1.33-2.88 0-2.29 2-2.71 2-5 0-2.69-1.92-2.97-2.31-5.16l.12-2.52a12.036 12.036 0 0 0 .19-2.1 9.49 9.49 0 0 0 -2.53-6.36 8.735 8.735 0 0 0 -6.47-2.86 9.2 9.2 0 0 0 -9 9.22 12.276 12.276 0 0 0 .19 2.12l.12 2.51c-.4 2.18-2.31 2.47-2.31 5.15 0 2.29 2 2.71 2 5 0 .97-.75 1.87-1.33 2.88z" fill="#3f2625"/><path d="m51.353 49.294 4.115 1.235a4.956 4.956 0 0 1 3.532 4.747v2.195a1.53 1.53 0 0 1 -1.529 1.529h-22.942a1.53 1.53 0 0 1 -1.529-1.529v-2.195a4.956 4.956 0 0 1 3.532-4.747l4.115-1.235z" fill="#365cc6"/><path d="m48.48 45.44a11.876 11.876 0 0 0 2.87 3.85s0 4.71-5.35 4.71-5.35-4.71-5.35-4.71a11.986 11.986 0 0 0 2.86-3.83z" fill="#5e3330"/><path d="m52 38.266v1.5a6.154 6.154 0 0 1 -5.573 6.216 5.993 5.993 0 0 1 -6.427-5.982v-1.734a1.213 1.213 0 0 1 -1.125.743c-.911 0-1.851-.739-1.875-2.908a1.555 1.555 0 0 1 1.318-1.574 1.5 1.5 0 0 1 1.449.687c.941-1.307 3.3-3.629 7.854-4.813a1.491 1.491 0 0 1 1.247.241 9.709 9.709 0 0 1 3.507 4.392 1.485 1.485 0 0 1 1.427-.488 1.561 1.561 0 0 1 1.2 1.56c-.025 2.166-.965 2.9-1.875 2.9a1.213 1.213 0 0 1 -1.127-.74z" fill="#6d3e3a"/><path d="m19.353 48.941 4.115 1.235a4.956 4.956 0 0 1 3.532 4.747v2.548a1.53 1.53 0 0 1 -1.529 1.529h-22.942a1.53 1.53 0 0 1 -1.529-1.529v-2.548a4.956 4.956 0 0 1 3.532-4.747l4.115-1.235z" fill="#365cc6"/><path d="m16.51 45.43a7.588 7.588 0 0 0 2.84 3.51s-.76 3.06-5.35 3.06-5.35-3.06-5.35-3.06 1.5-.74 2.84-3.5z" fill="#e0977e"/><path d="m5.3 35.391a12.918 12.918 0 0 1 -.3-2.86v-2.3a3.99 3.99 0 0 1 1.52-3.18 9.954 9.954 0 0 1 .27-3.47.729.729 0 0 1 1.04-.5 11.917 11.917 0 0 0 5.48 1.02 9.361 9.361 0 0 1 4.93 1.15 3.8 3.8 0 0 1 1.29 1.15 3.664 3.664 0 0 1 3.47 3.83v2.3a12.918 12.918 0 0 1 -.3 2.86l-.7.609h-16z" fill="#6d3e3a"/><path d="m17 31c3.75 0 3.233 4.447 3.233 4.447a1.5 1.5 0 0 1 1.449-.686 1.555 1.555 0 0 1 1.318 1.574c-.024 2.169-.964 2.907-1.875 2.907a1.212 1.212 0 0 1 -1.125-.742v1.27a6.154 6.154 0 0 1 -5.573 6.215 5.993 5.993 0 0 1 -6.427-5.985v-1.5a1.212 1.212 0 0 1 -1.125.742c-.911 0-1.851-.738-1.875-2.907a1.555 1.555 0 0 1 1.318-1.574 1.5 1.5 0 0 1 1.449.686s-.517-4.447 3.233-4.447z" fill="#f2ab8f"/><path d="m42 7h-10a1 1 0 0 1 0-2h10a1 1 0 0 1 0 2z" fill="#b7293a"/><path d="m36 11h-4a1 1 0 0 1 0-2h4a1 1 0 0 1 0 2z" fill="#b7293a"/><path d="m20.846 21.8 4.154-2.8h5a2.009 2.009 0 0 0 2-2v-10a2.007 2.007 0 0 0 -2-2h-16a2.008 2.008 0 0 0 -2 2v9.991a2.009 2.009 0 0 0 2 2h5v1.808a1.187 1.187 0 0 0 1.846 1.001z" fill="#f2ba1d"/><g fill="#ce8d25"><path d="m27 11h-10a1 1 0 0 1 0-2h10a1 1 0 0 1 0 2z"/><path d="m21 15h-4a1 1 0 0 1 0-2h4a1 1 0 0 1 0 2z"/></g></svg>