<?xml version="1.0" encoding="UTF-8" standalone="no"?>
<!-- Created with Inkscape (http://www.inkscape.org/) -->

<svg
   version="1.1"
   id="svg891"
   xml:space="preserve"
   width="682.66669"
   height="682.66669"
   viewBox="0 0 682.66669 682.66669"
   xmlns="http://www.w3.org/2000/svg"
   xmlns:svg="http://www.w3.org/2000/svg"><defs
     id="defs895"><clipPath
       clipPathUnits="userSpaceOnUse"
       id="clipPath905"><path
         d="M 0,512 H 512 V 0 H 0 Z"
         id="path903" /></clipPath></defs><g
     id="g897"
     transform="matrix(1.3333333,0,0,-1.3333333,0,682.66667)"><g
       id="g899"><g
         id="g901"
         clip-path="url(#clipPath905)"><g
           id="g907"
           transform="translate(323.3145,29.5371)"><path
             d="m 0,0 c -1.285,-4.242 -2.828,-7.711 -4.884,-10.282 -2.056,-2.699 -5.27,-4.627 -9.768,-6.041 -4.498,-1.414 -10.667,-2.314 -18.508,-2.699 -7.712,-0.386 -17.865,-0.514 -30.461,-0.514 -10.025,0 -18.636,0 -25.834,0.128 -7.197,0.129 -13.238,0.514 -18.25,1.029 -5.013,0.514 -9.126,1.285 -12.211,2.185 -3.212,1.028 -5.783,2.313 -7.968,3.856 -2.056,1.413 -3.727,3.341 -4.884,5.398 -1.157,2.185 -2.185,4.883 -3.213,8.097 l -144.85,432.106 c -2.956,9.125 -4.884,16.195 -5.398,21.464 -0.643,5.27 0.514,9.254 3.728,11.953 3.084,2.57 8.482,4.241 15.937,4.884 7.583,0.643 18.122,0.9 31.746,0.9 11.567,0 20.564,-0.257 27.119,-0.771 6.555,-0.514 11.567,-1.414 15.037,-2.571 3.471,-1.285 6.041,-3.213 7.327,-5.655 1.413,-2.571 2.699,-5.655 3.984,-9.511 L -62.978,78.016 h 0.386 L 53.853,452.157 c 1.028,4.241 2.313,7.711 3.727,10.281 1.543,2.7 4.113,4.756 7.84,6.299 3.599,1.413 8.869,2.442 15.68,2.956 6.684,0.514 16.067,0.771 27.891,0.771 11.567,0 20.564,-0.386 26.99,-1.157 6.427,-0.771 10.796,-2.57 13.238,-5.398 2.314,-2.956 3.085,-7.069 2.186,-12.339 -0.772,-5.269 -2.828,-12.21 -5.784,-21.078 z"
             style="fill:#ff5a58;fill-opacity:1;fill-rule:evenodd;stroke:none"
             id="path909" /></g><g
           id="g911"
           transform="translate(205.8877,280.4751)"><path
             d="m 0,0 54.449,-172.922 h 0.385 l 116.445,374.141 c 1.029,4.241 2.314,7.711 3.728,10.282 1.542,2.699 4.113,4.755 7.84,6.298 3.599,1.413 8.868,2.442 15.68,2.956 6.683,0.514 16.066,0.771 27.89,0.771 11.568,0 20.565,-0.386 26.991,-1.157 6.426,-0.771 10.796,-2.57 13.238,-5.398 2.313,-2.956 3.085,-7.069 2.186,-12.339 -0.772,-5.269 -2.828,-12.21 -5.785,-21.078 l -145.62,-432.492 c -1.285,-4.241 -2.828,-7.711 -4.884,-10.282 -2.057,-2.699 -5.27,-4.627 -9.768,-6.041 -4.499,-1.414 -10.668,-2.314 -18.508,-2.699 -7.712,-0.386 -17.865,-0.514 -30.461,-0.514 -10.025,0 -18.637,0 -25.833,0.128 -7.198,0.129 -13.239,0.515 -18.252,1.029 -5.012,0.514 -9.125,1.285 -12.209,2.185 -3.214,1.028 -5.784,2.313 -7.969,3.856 -2.057,1.413 -3.728,3.341 -4.884,5.398 -1.158,2.185 -2.185,4.883 -3.213,8.097 l -144.85,432.106 c -2.956,9.126 -4.884,16.195 -5.398,21.464 -0.643,5.27 0.514,9.254 3.727,11.953 3.085,2.57 8.483,4.241 15.937,4.884 7.583,0.643 18.123,0.9 31.746,0.9 11.568,0 20.564,-0.257 27.12,-0.771 6.555,-0.514 11.567,-1.414 15.037,-2.571 3.471,-1.285 6.041,-3.213 7.326,-5.655 1.414,-2.571 2.7,-5.655 3.985,-9.511 L -27.036,85.865"
             style="fill:none;stroke:#000000;stroke-width:20;stroke-linecap:round;stroke-linejoin:round;stroke-miterlimit:2.613;stroke-dasharray:none;stroke-opacity:1"
             id="path913" /></g><g
           id="g915"
           transform="translate(192.3628,323.4067)"><path
             d="M 0,0 H 0.007"
             style="fill:none;stroke:#000000;stroke-width:20;stroke-linecap:round;stroke-linejoin:round;stroke-miterlimit:2.613;stroke-dasharray:none;stroke-opacity:1"
             id="path917" /></g></g></g></g></svg>
